<svg viewBox="0 0 72 72" xmlns="http://www.w3.org/2000/svg"><g stroke="#000" stroke-linecap="round" stroke-linejoin="round" stroke-miterlimit="10"><g stroke-width="2"><path d="m52.55 23.75c0 3.985-1.785 5.908-3.754 10.5-.5028 1.172-4.211 13.38-4.211 13.38h-17.17s-2.981-11.67-3.546-12.62c-2.37-3.998-4.419-6.91-4.419-11.26 0-9.141 7.41-16.55 16.55-16.55 9.141 0 16.55 7.41 16.55 16.55z" fill="none"/><path d="m36 47.22v-11.94"/><path d="m41.97 35.28h-11.94"/></g><path d="m44.16 58.79c0 3.24-3.651 5.867-8.155 5.867s-8.155-2.627-8.155-5.867z" fill="none" stroke-width="1.696"/><path d="m27.99 54.98 16.02-3.47" stroke-width="1.965"/><path d="m38.2 56.07 5.78-1.18" stroke-width="2"/><path d="m28.02 51.6 5.78-1.18" stroke-width="2"/></g></svg>